<?xml version="1.0" standalone="no"?>
<!DOCTYPE svg PUBLIC "-//W3C//DTD SVG 20010904//EN"
 "http://www.w3.org/TR/2001/REC-SVG-20010904/DTD/svg10.dtd">
<svg version="1.0" xmlns="http://www.w3.org/2000/svg"
 width="348.000000pt" height="348.000000pt" viewBox="0 0 348.000000 348.000000"
 preserveAspectRatio="xMidYMid meet">

<g transform="translate(0.000000,348.000000) scale(0.100000,-0.100000)"
fill="#000000" stroke="none">
<path d="M1571 3310 c-175 -18 -380 -79 -538 -159 -633 -319 -975 -1013 -841
-1711 90 -476 408 -895 838 -1107 239 -118 441 -165 700 -166 427 -1 795 146
1097 436 320 309 486 695 486 1137 2 758 -531 1406 -1275 1549 -124 24 -344
34 -467 21z m299 -1404 c0 -739 -1 -785 -17 -790 -45 -14 -230 -37 -345 -43
-472 -23 -712 164 -710 552 0 90 5 125 26 192 81 251 292 384 592 371 l114 -5
0 253 0 254 170 0 170 0 0 -784z m540 609 l0 -175 -170 0 -170 0 0 175 0 175
170 0 170 0 0 -175z m0 -822 c0 -263 -5 -518 -10 -568 -27 -241 -112 -378
-301 -488 l-47 -27 -156 75 c-86 41 -156 77 -156 80 0 3 27 18 59 35 87 43
172 127 205 199 53 118 57 166 63 689 l5 482 169 0 169 0 0 -477z"/>
<path d="M1375 1909 c-75 -8 -103 -19 -148 -59 -96 -84 -109 -312 -25 -414 46
-56 99 -79 195 -84 45 -2 93 -2 107 2 l26 6 0 270 c0 149 -3 270 -7 270 -5 1
-26 4 -48 8 -22 4 -67 5 -100 1z"/>
</g>
</svg>
